<svg width="437" height="194" viewBox="0 0 437 194" fill="none" xmlns="http://www.w3.org/2000/svg">
<path d="M27.3201 166.072H137.5V193.762H0.0500488V0.602193C1.26755 0.394936 2.49644 0.261351 3.73004 0.202184C25.73 0.202184 47.7301 -0.30782 69.7301 0.29218C103.5 1.21218 130.3 24.3922 136.73 57.5322C137.553 62.2732 137.931 67.0808 137.86 71.8922C137.98 92.0522 137.91 112.222 137.91 132.382V138.142H109.91V69.5422C109.942 64.1084 108.897 58.7221 106.837 53.694C104.776 48.666 101.74 44.0957 97.9045 40.2469C94.0687 36.398 89.5087 33.3468 84.4877 31.2693C79.4666 29.1917 74.0839 28.1289 68.65 28.1422H27.3201V166.072Z" fill="white"/>
<path opacity="0.91" d="M82.5199 138.142H55.6799V55.9421C63.6799 56.6021 72.3599 52.9421 79.0099 60.2821C80.7699 62.2021 82.3399 65.1621 82.3699 67.6621C82.6199 90.9421 82.5199 114.232 82.5199 138.142Z" fill="#FC9318"/>
<g opacity="0.91">
<path d="M171 49.0021V1H181.572V39.4017H205.497V48.9259L171 49.0021Z" fill="white"/>
<path d="M233.86 49.0019V45.0207C232.469 46.5718 230.752 47.795 228.832 48.602C226.911 49.4091 224.836 49.7798 222.755 49.6876C215.84 49.6876 210.145 45.7065 210.145 38.449V38.2966C210.145 30.2772 216.24 26.5818 224.964 26.5818C228.02 26.5527 231.057 27.0621 233.936 28.0867V27.4771C233.936 23.1531 231.269 20.753 226.05 20.753C222.576 20.7383 219.13 21.3847 215.897 22.6578L213.326 14.867C217.788 12.8109 222.662 11.8011 227.574 11.9146C239.003 11.9146 243.975 17.8195 243.975 27.7628V49.078L233.86 49.0019ZM234.069 34.1822C231.975 33.2599 229.71 32.7924 227.421 32.8107C222.964 32.8107 220.221 34.6012 220.221 37.8966V38.0299C220.221 40.8491 222.564 42.4873 225.936 42.4873C230.812 42.4873 234.088 39.8205 234.088 36.0489L234.069 34.1822Z" fill="white"/>
<path d="M251.727 49.002V41.6683L270.776 20.715H252.337V12.2956H283.672V19.6293L264.623 40.5825H283.672V49.021L251.727 49.002Z" fill="white"/>
<path d="M307.882 49.821C305.369 49.8622 302.874 49.3977 300.544 48.455C298.214 47.5123 296.098 46.1107 294.321 44.3336C292.544 42.5565 291.142 40.4402 290.2 38.1106C289.257 35.7809 288.792 33.2854 288.834 30.7726V30.6392C288.807 28.1128 289.289 25.6068 290.251 23.2702C291.212 20.9336 292.633 18.814 294.429 17.0372C296.225 15.2604 298.36 13.8627 300.707 12.9271C303.054 11.9915 305.566 11.5371 308.092 11.5908C310.846 11.4266 313.601 11.8978 316.144 12.9679C318.687 14.0381 320.951 15.6785 322.759 17.7625L316.397 24.6199C315.386 23.3541 314.101 22.3334 312.64 21.6341C311.179 20.9348 309.578 20.575 307.958 20.5817C302.739 20.5817 299.044 25.1724 299.044 30.6012V30.7345C299.044 36.3538 302.663 40.8873 308.358 40.8873C309.959 40.8489 311.535 40.4806 312.987 39.8054C314.439 39.1302 315.736 38.1627 316.797 36.9633L322.892 43.135C321.077 45.333 318.776 47.0804 316.172 48.2404C313.568 49.4005 310.73 49.9415 307.882 49.821Z" fill="white"/>
<path d="M346.684 49.8212C344.119 49.9238 341.56 49.5071 339.16 48.5959C336.76 47.6847 334.569 46.2979 332.719 44.5187C330.869 42.7396 329.397 40.6048 328.393 38.2426C327.388 35.8805 326.871 33.3396 326.873 30.7727V30.6394C326.905 28.0692 327.449 25.5312 328.475 23.1744C329.501 20.8176 330.987 18.6895 332.847 16.9151C334.707 15.1407 336.902 13.7556 339.304 12.8413C341.707 11.927 344.267 11.5019 346.836 11.5909C349.401 11.4883 351.96 11.905 354.36 12.8162C356.76 13.7274 358.95 15.1142 360.801 16.8934C362.651 18.6725 364.123 20.8073 365.127 23.1694C366.132 25.5316 366.649 28.0725 366.646 30.6394V30.7727C366.615 33.3429 366.07 35.8809 365.045 38.2376C364.019 40.5944 362.532 42.7225 360.673 44.497C358.813 46.2714 356.618 47.6565 354.215 48.5708C351.813 49.485 349.252 49.9102 346.684 49.8212ZM356.36 30.7727C356.411 29.4657 356.199 28.1618 355.737 26.9382C355.275 25.7146 354.572 24.5963 353.67 23.6495C352.767 22.7027 351.684 21.9467 350.484 21.4263C349.284 20.9059 347.992 20.6316 346.684 20.6199C345.385 20.6014 344.097 20.8518 342.9 21.3553C341.704 21.8588 340.624 22.6046 339.729 23.5457C338.835 24.4868 338.145 25.6029 337.702 26.8237C337.26 28.0445 337.075 29.3437 337.159 30.6394V30.7727C337.108 32.0797 337.32 33.3836 337.782 34.6072C338.245 35.8308 338.948 36.9491 339.85 37.896C340.753 38.8428 341.836 39.5988 343.036 40.1192C344.236 40.6396 345.528 40.9138 346.836 40.9255C348.13 40.9273 349.41 40.6655 350.599 40.1562C351.788 39.6469 352.861 38.9007 353.752 37.9632C354.643 37.0257 355.334 35.9164 355.783 34.7031C356.231 33.4898 356.428 32.1979 356.36 30.9061V30.7727Z" fill="white"/>
<path d="M395.772 22.4864C388.838 22.4864 384.59 26.677 384.59 35.4393V49.0208H374.171V12.2574H384.59V19.6482C386.724 14.5813 390.152 11.2859 396.324 11.5716V22.4864H395.772Z" fill="white"/>
<path d="M435.964 34.2586H410.401C410.725 36.3633 411.826 38.2701 413.487 39.603C415.148 40.9359 417.248 41.598 419.372 41.4589C421.041 41.4753 422.695 41.1452 424.23 40.4895C425.764 39.8337 427.146 38.8665 428.287 37.6492L434.268 42.9256C432.47 45.1598 430.175 46.9432 427.566 48.1337C424.956 49.3242 422.105 49.889 419.239 49.783C408.21 49.783 400.038 42.0303 400.038 30.7346V30.6013C400.038 20.1056 407.524 11.5529 418.211 11.5529C430.497 11.5529 436.116 21.0771 436.116 31.4966V31.6299C436.116 32.6775 436.04 33.3061 435.964 34.2586ZM418.211 19.9342C413.887 19.9342 411.086 23.02 410.267 27.744H425.963C425.354 23.0772 422.611 19.9342 418.211 19.9342Z" fill="white"/>
<path d="M171 115.897V67.895H181.553V115.897H171Z" fill="white"/>
<path d="M215.707 115.897V95.4005C215.707 90.467 213.364 87.9145 209.383 87.9145C205.402 87.9145 202.868 90.467 202.868 95.4005V115.897H192.449V79.1522H202.868V84.3524C204.042 82.5593 205.64 81.0838 207.521 80.057C209.401 79.0301 211.507 78.4837 213.65 78.4664C221.536 78.4664 226.126 83.6667 226.126 92.1051V115.897H215.707Z" fill="white"/>
<path d="M253.137 116.716C241.708 116.716 233.307 108.277 233.307 97.6673V97.5339C233.339 94.9638 233.883 92.4258 234.909 90.069C235.935 87.7122 237.421 85.5841 239.281 83.8097C241.141 82.0353 243.336 80.6502 245.738 79.7359C248.141 78.8216 250.701 78.3965 253.27 78.4855C264.699 78.4855 273.081 86.9049 273.081 97.5339V97.6673C273.052 100.237 272.509 102.774 271.486 105.131C270.462 107.488 268.977 109.616 267.119 111.391C265.261 113.165 263.067 114.55 260.666 115.465C258.265 116.379 255.705 116.805 253.137 116.716ZM262.794 97.6673C262.851 96.3588 262.643 95.0523 262.185 93.8255C261.726 92.5987 261.025 91.4767 260.124 90.526C259.224 89.5753 258.141 88.8155 256.94 88.2916C255.74 87.7677 254.446 87.4905 253.137 87.4764C251.843 87.4746 250.563 87.7364 249.374 88.2457C248.185 88.755 247.112 89.5012 246.221 90.4387C245.33 91.3763 244.639 92.4855 244.19 93.6988C243.742 94.9121 243.545 96.2041 243.613 97.4959V97.6292C243.564 98.9355 243.778 100.238 244.241 101.461C244.704 102.683 245.407 103.8 246.309 104.747C247.211 105.693 248.293 106.449 249.492 106.97C250.691 107.492 251.982 107.768 253.289 107.782C254.583 107.784 255.863 107.522 257.052 107.013C258.241 106.503 259.314 105.757 260.205 104.82C261.096 103.882 261.787 102.773 262.236 101.56C262.684 100.346 262.881 99.0543 262.813 97.7625L262.794 97.6673Z" fill="white"/>
<path d="M299.291 116.164H289.767L275.309 79.1525H286.338L294.567 103.763L302.872 79.1525H313.692L299.291 116.164Z" fill="white"/>
<path d="M339.617 115.897V111.916C338.224 113.464 336.506 114.685 334.586 115.492C332.666 116.299 330.592 116.671 328.511 116.583C321.578 116.583 315.882 112.602 315.882 105.344V105.192C315.882 97.1726 321.997 93.4772 330.702 93.4772C333.758 93.448 336.795 93.9574 339.674 94.982V94.3724C339.674 90.0484 337.007 87.6483 331.788 87.6483C328.319 87.6333 324.88 88.2798 321.654 89.5532L319.044 81.7624C323.514 79.7072 328.393 78.6975 333.312 78.8099C344.741 78.8099 349.693 84.7149 349.693 94.6582V115.973L339.617 115.897ZM339.807 101.078C337.713 100.155 335.447 99.6878 333.159 99.706C328.702 99.706 325.959 101.497 325.959 104.792V104.925C325.959 107.744 328.302 109.383 331.673 109.383C336.55 109.383 339.826 106.716 339.826 102.944L339.807 101.078Z" fill="white"/>
<path d="M371.561 116.583C365.831 116.536 360.28 114.579 355.789 111.021L360.246 104.163C363.573 106.78 367.621 108.316 371.847 108.563C374.856 108.563 376.228 107.458 376.228 105.82V105.687C376.228 103.42 372.666 102.658 368.608 101.439C363.465 99.9153 357.636 97.5152 357.636 90.3911V90.2577C357.636 82.7717 363.656 78.6001 371.066 78.6001C375.95 78.6736 380.71 80.1479 384.78 82.8479L380.761 90.0482C377.779 88.1057 374.364 86.928 370.818 86.6195C368.285 86.6195 367.008 87.7243 367.008 89.1529V89.3815C367.008 91.4388 370.494 92.4102 374.475 93.7817C379.618 95.4961 385.581 97.9533 385.581 104.677V104.811C385.619 112.887 379.523 116.583 371.561 116.583Z" fill="white"/>
<path d="M393.314 75.0951V65.8376H404.286V75.0951H393.314ZM393.581 115.897V79.1524H404V115.897H393.581Z" fill="white"/>
<path d="M189.725 182.787H171V134.785H189.725C204.811 134.785 215.23 145.147 215.23 158.652V158.786C215.23 172.291 204.811 182.787 189.725 182.787ZM204.201 158.786C204.297 156.86 203.988 154.936 203.294 153.137C202.6 151.339 201.537 149.705 200.173 148.343C198.809 146.981 197.174 145.92 195.374 145.228C193.575 144.536 191.65 144.23 189.725 144.328H181.572V173.263H189.725C191.644 173.378 193.567 173.086 195.366 172.408C197.166 171.73 198.802 170.679 200.168 169.326C201.534 167.972 202.6 166.346 203.295 164.553C203.99 162.759 204.299 160.84 204.201 158.919V158.786Z" fill="white"/>
<path d="M223.745 141.985V132.727H234.717V141.985H223.745ZM224.012 182.787V146.042H234.393V182.787H224.012Z" fill="white"/>
<path d="M260.699 193.892C255.055 193.95 249.481 192.643 244.451 190.082L248.013 182.253C251.767 184.49 256.063 185.656 260.433 185.625C267.557 185.625 270.909 182.196 270.909 175.605V173.815C269.549 175.711 267.747 177.247 265.659 178.289C263.571 179.332 261.261 179.849 258.928 179.796C250.356 179.796 242.603 173.548 242.603 162.652V162.519C242.603 151.547 250.489 145.375 258.928 145.375C261.19 145.327 263.433 145.796 265.487 146.747C267.54 147.698 269.349 149.105 270.776 150.861V146.061H281.195V174.501C281.195 188.349 274.395 193.892 260.699 193.892ZM270.909 162.5C270.803 160.199 269.814 158.028 268.149 156.438C266.483 154.848 264.269 153.96 261.966 153.96C259.663 153.96 257.449 154.848 255.783 156.438C254.118 158.028 253.129 160.199 253.023 162.5V162.633C253.007 163.789 253.231 164.936 253.679 166.001C254.127 167.067 254.79 168.028 255.627 168.826C256.464 169.623 257.456 170.239 258.542 170.635C259.628 171.032 260.784 171.2 261.937 171.129C263.092 171.194 264.249 171.022 265.335 170.624C266.421 170.226 267.415 169.611 268.255 168.815C269.095 168.02 269.764 167.061 270.22 165.998C270.677 164.935 270.911 163.79 270.909 162.633V162.5Z" fill="white"/>
<path d="M290.739 141.985V132.727H301.71V141.985H290.739ZM291.005 182.787V146.042H301.444V182.787H291.005Z" fill="white"/>
<path d="M323.654 183.396C317.273 183.396 312.949 180.863 312.949 172.367V154.957H308.568V146.042H312.949V136.651H323.368V146.042H332.016V154.957H323.368V170.653C323.368 173.053 324.397 174.215 326.74 174.215C328.536 174.226 330.306 173.78 331.883 172.92V181.282C329.392 182.742 326.541 183.474 323.654 183.396Z" fill="white"/>
<path d="M361.237 182.786V178.805C359.841 180.355 358.12 181.577 356.197 182.383C354.274 183.19 352.196 183.562 350.112 183.472C343.198 183.472 337.502 179.491 337.502 172.234V172.081C337.502 164.062 343.598 160.366 352.322 160.366C355.378 160.337 358.415 160.847 361.294 161.871V161.262C361.294 156.938 358.627 154.538 353.408 154.538C349.933 154.523 346.488 155.169 343.255 156.442L340.664 148.652C345.127 146.595 350 145.586 354.913 145.699C366.342 145.699 371.313 151.604 371.313 161.547V182.863L361.237 182.786ZM361.427 167.967C359.333 167.044 357.067 166.577 354.779 166.595C350.322 166.595 347.579 168.386 347.579 171.681V171.815C347.579 174.634 349.922 176.272 353.294 176.272C358.17 176.272 361.446 173.605 361.446 169.834L361.427 167.967Z" fill="white"/>
<path d="M380.781 182.787V132.727H391.2V182.787H380.781Z" fill="white"/>
</g>
</svg>
